# xmcd CD database file
#
# Track frame offsets:
#	150
#	12192
#	24357
#	38047
#	53155
#	65075
#	76437
#	87307
#	100122
#	112657
#	126540
#	140575
#	153370
#	164900
#	176477
#	190180
#	202655
#	216190
#
# Disc length: 3062 seconds
#
# Revision: 0
# Processed by: cddbd v1.4PL0 Copyright (c) Steve Scherf et al.
# Submitted via: CDex 1.40Release
#
DISCID=f10bf412
DTITLE=Sarah Vaughan - Jazz and Bkues - CD 45
DYEAR=1997
DGENRE=Blues
TTITLE0=Mean To Me
TTITLE1=I'd Rather Have A Memory Than A Dream
TTITLE2=What More Can A Woman Do?
TTITLE3=Lover Man
TTITLE4=Signing Off
TTITLE5=Interlude
TTITLE6=No Smokes Blues
TTITLE7=East Of The Sun
TTITLE8=What A Difference A Day
TTITLE9=One In A While
TTITLE10=Penthouse Serenade
TTITLE11=Don't Worry' Bout Me
TTITLE12=Gentleman Friend
TTITLE13=I'm Scared
TTITLE14=You Go To My Head
TTITLE15=I Could Make You Love Me
TTITLE16=It Might As Well Be Spring
TTITLE17=You're Blase
EXTD=YEAR: 1997 ID3G: 0
EXTT0=
EXTT1=
EXTT2=
EXTT3=
EXTT4=
EXTT5=
EXTT6=
EXTT7=
EXTT8=
EXTT9=
EXTT10=
EXTT11=
EXTT12=
EXTT13=
EXTT14=
EXTT15=
EXTT16=
EXTT17=
PLAYORDER=
